<?xml version="1.0" encoding="UTF-8" standalone="no"?>
<!-- Created with Inkscape (http://www.inkscape.org/) -->

<svg
   xmlns:dc="http://purl.org/dc/elements/1.1/"
   xmlns:cc="http://creativecommons.org/ns#"
   xmlns:rdf="http://www.w3.org/1999/02/22-rdf-syntax-ns#"
   xmlns:svg="http://www.w3.org/2000/svg"
   xmlns="http://www.w3.org/2000/svg"
   version="1.0"
   width="832"
   height="516"
   id="svg2">
  <defs
     id="defs4" />
  <metadata
     id="metadata7">
    <rdf:RDF>
      <cc:Work
         rdf:about="">
        <dc:format>image/svg+xml</dc:format>
        <dc:type
           rdf:resource="http://purl.org/dc/dcmitype/StillImage" />
        <dc:title></dc:title>
      </cc:Work>
    </rdf:RDF>
  </metadata>
  <g
     transform="translate(-817.18872,-381.59692)"
     id="layer1">
    <path
       d="m 1584.4368,640.34692 0.2519,-257.25 32.25,-0.26385 32.25,-0.26386 0,257.51386 0,257.51383 -32.5019,0 -32.5019,0 0.2519,-257.24998 z m -767.24808,-1.75 0,-257 32.5,0 32.5,0 0,257 0,256.99998 -32.5,0 -32.5,0 0,-256.99998 z m 127,192.99998 0,-63.99998 32.5,0 32.49998,0 0,32 0,31.99998 31.5,0 31.5,0 0,32 0,32 -64,0 -63.99998,0 0,-64 z m 257.99998,32.5139 0,-31.4862 -32.25,-0.2638 -32.25,-0.2639 -0.264,-31.74998 -0.2641,-31.75 -31.9719,0 -31.9719,0 -0.264,-31.75 -0.2641,-31.75 -32.25,-0.26385 -32.25,-0.26386 0,-31.9721 0,-31.9721 -31.74998,-0.26404 -31.75,-0.26405 -0.26385,-32.25 -0.26386,-32.25 32.01386,0 32.01383,0 0,-32.5 0,-32.5 32.5,0 32.5,0 0,-32 0,-32 32,0 32,0 0,-32.5 0,-32.5 97,0 97,0 0,32.5 0,32.5 32,0 32,0 0,32 0,32 31.5,0 31.5,0 0,32.5 0,32.5 32.0139,0 32.0138,0 -0.2638,32.25 -0.2639,32.25 -31.75,0.26405 -31.75,0.26404 0,31.98596 0,31.98595 -31.4859,0 -31.486,0 -0.264,31.75 -0.2641,31.75 -31.75,0.26405 -31.75,0.26404 0,31.98596 0,31.98593 -32.5,0 -32.5,0 0,31.5 0,31.5 -32,0 -32,0 0,-31.4861 z m 64.236,-128.26388 0.264,-31.75 31.75,-0.26405 31.75,-0.26404 0,-31.47191 0,-31.47191 31.75,-0.26404 31.75,-0.26405 0.2639,-32.25 0.2638,-32.25 -32.0138,0 -32.0139,0 0,-32.5 0,-32.5 -32,0 -32,0 0,-32 0,-32 -32,0 -32,0 0,32 0,32 -32.5,0 -32.5,0 0,32.5 0,32.5 -32.5138,0 -32.5139,0 0.2639,32.25 0.2638,32.25 32.25,0.26385 32.25,0.26386 0,31.47229 0,31.47229 32.25,0.26386 32.25,0.26385 0.2641,31.75 0.264,31.75 31.9719,0 31.9719,0 0.2641,-31.75 z m -64.236,-127.75 0,-32.5 32,0 32,0 0,32.5 0,32.5 -32,0 -32,0 0,-32.5 z m 192,255.49998 0,-32 31.5,0 31.5,0 0,-31.99998 0,-32 32.5,0 32.5,0 0,63.99998 0,64 -64,0 -64,0 0,-32 z M 944.85539,445.93025 c -0.36667,-0.36666 -0.66667,-14.99166 -0.66667,-32.5 l 0,-31.83333 32.5,0 32.49998,0 0,32.5 0,32.5 -31.83331,0 c -17.50834,0 -32.13334,-0.3 -32.5,-0.66667 z m 512.33331,-31.81948 0,-32.51385 32.5139,0 32.5138,0 -0.2638,32.25 -0.2639,32.25 -32.25,0.26385 -32.25,0.26386 0,-32.51386 z"
       id="path8066"
       style="fill:#000000" />
  </g>
</svg>
